# xmcd
#
# Track frame offsets:
# 150
# 11777
# 24123
# 34262
# 47724
# 59179
# 70634
# 79282
# 88625
# 101017
# 113227
# 128513
# 140428
# 152995
# 165877
# 177287
# 190554
# 204517
# 218444
# 230875
# 244006
# 255069
# 265396
# 274550
# 286221
# 298072
# 308119
# 317279
#
# Disc length: 4394 seconds
#
# Revision: 0
# Processed by: cddbd v1.5.2PL0 Copyright (c) Steve Scherf et al.
# Submitted via: Axialis_AX_CDPlayer 2.6
#
DISCID=8011281c
DTITLE=Stonewall Jackson - The Lonesome In Me
DYEAR=1900
DGENRE=
TTITLE0=Ship In The Bottle
TTITLE1=Morals Of A Man
TTITLE2=I Miss You Most In The Winter Time
TTITLE3=Better Days For Mama
TTITLE4=The Lonesome In Me
TTITLE5=Thoughts Of A Lonely Man
TTITLE6="Never More" Quote The Raven
TTITLE7=The Difference Between Going And Really Gone
TTITLE8=Blues Plus Booze (Means I Lose)
TTITLE9=The Harm You've Done
TTITLE10=Somebody's Always Leaving
TTITLE11=Recess Time
TTITLE12=Born That Way
TTITLE13=Blue Field
TTITLE14=Oh Lonesome Me
TTITLE15=When He Was Nine
TTITLE16=Red Roses Blooming Back Home
TTITLE17=Nashville
TTITLE18=Push The Panic Button
TTITLE19=Waitin' For Dawn Till Dawn
TTITLE20=Waterloo
TTITLE21=That's All This Old World Needs
TTITLE22=Big Busy World
TTITLE23=Torn From The Pages Of Life
TTITLE24=I've Run Out Of Reasons (For Running Late At Night)
TTITLE25=I'm Not Strong Enough
TTITLE26=True Love Is The Thing
TTITLE27=The House Of Bottles And Cans
EXTD=
EXTT0=
EXTT1=
EXTT2=
EXTT3=
EXTT4=
EXTT5=
EXTT6=
EXTT7=
EXTT8=
EXTT9=
EXTT10=
EXTT11=
EXTT12=
EXTT13=
EXTT14=
EXTT15=
EXTT16=
EXTT17=
EXTT18=
EXTT19=
EXTT20=
EXTT21=
EXTT22=
EXTT23=
EXTT24=
EXTT25=
EXTT26=
EXTT27=
PLAYORDER=
